<svg width="173" height="44" viewBox="0 0 173 44" fill="none" xmlns="http://www.w3.org/2000/svg">
<g clip-path="url(#clip0_3_2)">
<path d="M33 34H7C6.45 34 6 34.45 6 35V37C6 37.55 6.45 38 7 38H33C33.55 38 34 37.55 34 37V35C34 34.45 33.55 34 33 34ZM37 14C35.3438 14 34 15.3438 34 17C34 17.4437 34.1 17.8563 34.275 18.2375L29.75 20.95C28.7875 21.525 27.5437 21.2 26.9875 20.225L21.8937 11.3125C22.5625 10.7625 23 9.9375 23 9C23 7.34375 21.6562 6 20 6C18.3438 6 17 7.34375 17 9C17 9.9375 17.4375 10.7625 18.1063 11.3125L13.0125 20.225C12.4562 21.2 11.2063 21.525 10.25 20.95L5.73125 18.2375C5.9 17.8625 6.00625 17.4437 6.00625 17C6.00625 15.3438 4.6625 14 3.00625 14C1.35 14 0 15.3438 0 17C0 18.6562 1.34375 20 3 20C3.1625 20 3.325 19.975 3.48125 19.95L8 32H32L36.5187 19.95C36.675 19.975 36.8375 20 37 20C38.6562 20 40 18.6562 40 17C40 15.3438 38.6562 14 37 14Z" fill="#FFC700"/>
</g>
<line x1="63" y1="4.37114e-08" x2="63" y2="44" stroke="white" stroke-width="2"/>
<path d="M83.1378 32V18.9091H91.8054V21.1911H85.9055V24.3104H91.2301V26.5923H85.9055V32H83.1378ZM101.753 18.9091H104.521V27.4105C104.521 28.3651 104.293 29.2003 103.837 29.9162C103.385 30.6321 102.752 31.1903 101.938 31.5909C101.124 31.9872 100.176 32.1854 99.0939 32.1854C98.0073 32.1854 97.057 31.9872 96.2431 31.5909C95.4292 31.1903 94.7963 30.6321 94.3446 29.9162C93.8929 29.2003 93.6671 28.3651 93.6671 27.4105V18.9091H96.4348V27.174C96.4348 27.6726 96.5435 28.1158 96.7608 28.5036C96.9824 28.8913 97.2935 29.196 97.6941 29.4176C98.0946 29.6392 98.5613 29.75 99.0939 29.75C99.6309 29.75 100.097 29.6392 100.494 29.4176C100.894 29.196 101.203 28.8913 101.421 28.5036C101.642 28.1158 101.753 27.6726 101.753 27.174V18.9091ZM106.299 21.1911V18.9091H117.051V21.1911H113.043V32H110.307V21.1911H106.299ZM129.771 18.9091V32H127.38L121.685 23.7607H121.589V32H118.821V18.9091H121.25L126.901 27.142H127.016V18.9091H129.771ZM132.058 32V18.9091H140.879V21.1911H134.825V24.3104H140.425V26.5923H134.825V29.718H140.904V32H132.058ZM146.026 32L142.28 18.9091H145.304L147.471 28.005H147.579L149.97 18.9091H152.559L154.943 28.0241H155.058L157.225 18.9091H160.248L156.502 32H153.805L151.312 23.4411H151.21L148.723 32H146.026ZM168.708 22.674C168.657 22.1584 168.438 21.7578 168.05 21.4723C167.662 21.1868 167.136 21.044 166.471 21.044C166.019 21.044 165.638 21.108 165.327 21.2358C165.016 21.3594 164.777 21.532 164.611 21.7536C164.449 21.9751 164.368 22.2266 164.368 22.5078C164.359 22.7422 164.408 22.9467 164.515 23.1214C164.626 23.2962 164.777 23.4474 164.969 23.5753C165.161 23.6989 165.382 23.8075 165.634 23.9013C165.885 23.9908 166.153 24.0675 166.439 24.1314L167.615 24.4126C168.186 24.5405 168.71 24.7109 169.188 24.924C169.665 25.1371 170.078 25.3991 170.428 25.7102C170.777 26.0213 171.048 26.3878 171.239 26.8097C171.435 27.2315 171.536 27.7152 171.54 28.2607C171.536 29.0618 171.331 29.7564 170.926 30.3445C170.526 30.9283 169.946 31.3821 169.188 31.706C168.433 32.0256 167.523 32.1854 166.458 32.1854C165.401 32.1854 164.481 32.0234 163.697 31.6996C162.917 31.3757 162.308 30.8963 161.869 30.2614C161.434 29.6222 161.206 28.8317 161.185 27.8899H163.863C163.893 28.3288 164.018 28.6953 164.24 28.9893C164.466 29.2791 164.766 29.4986 165.141 29.6477C165.521 29.7926 165.949 29.8651 166.426 29.8651C166.895 29.8651 167.302 29.7969 167.647 29.6605C167.996 29.5241 168.267 29.3345 168.459 29.0916C168.651 28.8487 168.746 28.5696 168.746 28.2543C168.746 27.9602 168.659 27.7131 168.484 27.5128C168.314 27.3125 168.063 27.142 167.73 27.0014C167.402 26.8608 166.999 26.733 166.522 26.6179L165.097 26.2599C163.993 25.9915 163.121 25.5717 162.482 25.0007C161.843 24.4297 161.526 23.6605 161.53 22.6932C161.526 21.9006 161.737 21.2081 162.163 20.6158C162.593 20.0234 163.183 19.5611 163.933 19.2287C164.683 18.8963 165.536 18.7301 166.49 18.7301C167.462 18.7301 168.31 18.8963 169.034 19.2287C169.763 19.5611 170.33 20.0234 170.734 20.6158C171.139 21.2081 171.348 21.8942 171.361 22.674H168.708Z" fill="white"/>
<defs>
<clipPath id="clip0_3_2">
<rect width="40" height="32" fill="white" transform="translate(0 6)"/>
</clipPath>
</defs>
</svg>
