<svg width="24" height="24" viewBox="0 0 24 24" fill="none" xmlns="http://www.w3.org/2000/svg">
<path d="M5.615 20C5.155 20 4.771 19.846 4.463 19.538C4.15433 19.2293 4 18.845 4 18.385V15.269H5V18.385C5 18.5383 5.064 18.6793 5.192 18.808C5.32067 18.936 5.46167 19 5.615 19H18.385C18.5383 19 18.6793 18.936 18.808 18.808C18.936 18.6793 19 18.5383 19 18.385V5.615C19 5.46167 18.936 5.32067 18.808 5.192C18.6793 5.064 18.5383 5 18.385 5H5.615C5.46167 5 5.32067 5.064 5.192 5.192C5.064 5.32067 5 5.46167 5 5.615V8.731H4V5.615C4 5.155 4.15433 4.771 4.463 4.463C4.771 4.15433 5.155 4 5.615 4H18.385C18.845 4 19.229 4.15433 19.537 4.463C19.8457 4.771 20 5.155 20 5.615V18.385C20 18.845 19.846 19.229 19.538 19.537C19.2293 19.8457 18.845 20 18.385 20H5.615ZM10.846 15.923L10.138 15.203L12.842 12.5H4V11.5H12.842L10.138 8.796L10.846 8.076L14.77 12L10.846 15.923Z" fill="white"/>
</svg>
