<svg width="16" height="16" viewBox="0 0 16 16" fill="none" xmlns="http://www.w3.org/2000/svg">
<path d="M7.58512 9.58443C8.5056 9.58443 9.25179 8.83824 9.25179 7.91777C9.25179 6.99729 8.5056 6.2511 7.58512 6.2511C6.66465 6.2511 5.91846 6.99729 5.91846 7.91777C5.91846 8.83824 6.66465 9.58443 7.58512 9.58443Z" stroke="#FFC700"/>
<path d="M2.08445 2.81773L2.29278 2.45606C2.21099 2.40877 2.11555 2.39068 2.02213 2.40476C1.9287 2.41885 1.84284 2.46426 1.77862 2.53356L2.08445 2.81773ZM0.418618 5.70439L0.0202843 5.58106C-0.00744084 5.67123 -0.00374369 5.76815 0.0307709 5.85595C0.0652855 5.94375 0.128574 6.01724 0.210284 6.06439L0.418618 5.70439ZM0.416951 10.1302L0.208618 9.76939C0.126732 9.81658 0.0633221 9.89021 0.0287968 9.97819C-0.00572848 10.0662 -0.00931786 10.1633 0.0186177 10.2536L0.416951 10.1302ZM2.08362 13.0169L1.77778 13.3002C1.842 13.3695 1.92787 13.4149 2.0213 13.429C2.11472 13.4431 2.21016 13.425 2.29195 13.3777L2.08362 13.0169ZM5.91695 15.2294H5.50028C5.50024 15.324 5.53239 15.4158 5.59146 15.4897C5.65053 15.5636 5.73299 15.6152 5.82528 15.6361L5.91695 15.2294ZM9.25112 15.2311L9.34362 15.6377C9.43576 15.6167 9.51803 15.5651 9.57694 15.4912C9.63584 15.4173 9.66787 15.3256 9.66778 15.2311H9.25112ZM13.0853 13.0177L12.877 13.3786C12.9587 13.4258 13.0542 13.4439 13.1476 13.4299C13.241 13.4158 13.3269 13.3704 13.3911 13.3011L13.0853 13.0177ZM14.7503 10.1294L15.1486 10.2527C15.1763 10.1626 15.1726 10.0656 15.1381 9.97784C15.1036 9.89004 15.0403 9.81655 14.9586 9.76939L14.7503 10.1294ZM14.752 5.70356L14.9603 6.06439C15.0422 6.0172 15.1056 5.94357 15.1401 5.8556C15.1746 5.76762 15.1782 5.67051 15.1503 5.58023L14.752 5.70356ZM13.0853 2.81606L13.3911 2.53273C13.3269 2.46343 13.241 2.41801 13.1476 2.40393C13.0542 2.38985 12.9587 2.40794 12.877 2.45523L13.0853 2.81606ZM9.25195 0.605226H9.66862C9.66852 0.51087 9.6364 0.419342 9.57751 0.345618C9.51862 0.271894 9.43645 0.22034 9.34445 0.199393L9.25195 0.605226ZM5.91862 0.60356L5.82612 0.196893C5.73382 0.217708 5.65136 0.269314 5.59229 0.343224C5.53323 0.417134 5.50107 0.508947 5.50112 0.60356H5.91862ZM0.816951 5.82773C1.12961 4.81199 1.66708 3.87975 2.38945 3.10023L1.77862 2.53356C0.970998 3.40471 0.370009 4.44578 0.0202843 5.58106L0.816951 5.82773ZM1.45028 11.4594C1.18545 11.0007 0.972739 10.5137 0.816118 10.0077L0.019451 10.2544C0.195007 10.8197 0.43315 11.3636 0.729451 11.8761L1.45028 11.4594ZM2.39028 12.7344C2.03072 12.3457 1.71488 11.918 1.45028 11.4594L0.729451 11.8761C1.02498 12.3887 1.37689 12.8666 1.77862 13.3011L2.39028 12.7344ZM9.15945 14.8261C8.1232 15.062 7.04712 15.0614 6.01112 14.8244L5.82612 15.6361C6.98383 15.901 8.18636 15.9019 9.34445 15.6386L9.15945 14.8261ZM14.3536 10.0077C14.041 11.0235 13.5035 11.9557 12.7811 12.7352L13.392 13.3019C14.1995 12.4307 14.8005 11.3888 15.1503 10.2536L14.3536 10.0077ZM13.7203 4.37606C13.9903 4.84523 14.2011 5.33189 14.3553 5.82773L15.1511 5.58106C14.9756 5.01573 14.7375 4.4718 14.4411 3.95939L13.7203 4.37606ZM12.7803 3.10106C13.1401 3.48953 13.456 3.91722 13.7203 4.37606L14.4411 3.95939C14.1456 3.44677 13.7937 2.9688 13.392 2.53439L12.7803 3.10106ZM6.01112 1.00939C7.04737 0.773479 8.12345 0.774049 9.15945 1.01106L9.34445 0.199393C8.18674 -0.0656177 6.9842 -0.0664722 5.82612 0.196893L6.01112 1.00939ZM6.33528 2.14439V0.602726H5.50195V2.14439H6.33528ZM3.62695 3.22606L2.29278 2.45606L1.87612 3.17689L3.20945 3.94773L3.62695 3.22606ZM1.54362 8.99939L0.208618 9.76939L0.626118 10.4911L1.95945 9.72106L1.54362 8.99939ZM1.96028 6.11273L0.626951 5.34356L0.210284 6.06523L1.54362 6.83439L1.96028 6.11273ZM6.33528 15.2294V13.6902H5.50195V15.2294H6.33528ZM3.21028 11.8861L1.87612 12.6561L2.29278 13.3777L3.62612 12.6077L3.21028 11.8861ZM13.2945 12.6569L11.9603 11.8861L11.5436 12.6086L12.877 13.3786L13.2945 12.6569ZM9.66862 15.2319V13.6902H8.83528V15.2319H9.66862ZM14.5444 5.34273L13.2103 6.11273L13.627 6.83439L14.9603 6.06439L14.5444 5.34273ZM14.9595 9.76856L13.627 9.00106L13.2103 9.72273L14.5436 10.4919L14.9595 9.76856ZM9.66862 2.14439V0.605226H8.83528V2.14439H9.66862ZM12.8778 2.45606L11.5436 3.22689L11.9603 3.94856L13.2945 3.17773L12.8778 2.45606ZM8.83528 2.14439C8.83528 3.74773 10.5711 4.75023 11.9603 3.94856L11.5436 3.22689C11.3535 3.33664 11.1379 3.3944 10.9184 3.39436C10.6989 3.39433 10.4833 3.3365 10.2933 3.22669C10.1032 3.11689 9.94544 2.95898 9.83578 2.76884C9.72613 2.5787 9.66848 2.36388 9.66862 2.14439H8.83528ZM13.2103 6.11356C11.8211 6.91523 11.8211 8.92023 13.2103 9.72189L13.627 9.00023C13.4369 8.89051 13.2792 8.73272 13.1695 8.5427C13.0598 8.35268 13.002 8.13714 13.002 7.91773C13.002 7.69832 13.0598 7.48277 13.1695 7.29275C13.2792 7.10274 13.4369 6.94494 13.627 6.83523L13.2103 6.11356ZM11.9603 11.8869C10.5711 11.0852 8.83528 12.0861 8.83528 13.6902H9.66862C9.66862 13.4708 9.72639 13.2561 9.8361 13.0661C9.94581 12.876 10.1036 12.7183 10.2936 12.6086C10.4837 12.4988 10.6992 12.4411 10.9186 12.4411C11.138 12.4411 11.3536 12.4988 11.5436 12.6086L11.9603 11.8869ZM6.33528 13.6902C6.33528 12.0869 4.59945 11.0852 3.21028 11.8869L3.62695 12.6086C3.81703 12.4988 4.03266 12.4411 4.25215 12.4411C4.47164 12.4411 4.68725 12.499 4.8773 12.6088C5.06735 12.7186 5.22513 12.8765 5.33478 13.0666C5.44444 13.2567 5.50209 13.4724 5.50195 13.6919L6.33528 13.6902ZM1.96028 9.72189C3.34945 8.92023 3.34945 6.91523 1.96028 6.11356L1.54362 6.83523C2.37695 7.31606 2.37695 8.51773 1.54362 8.99939L1.96028 9.72189ZM5.50195 2.14439C5.5018 2.36374 5.44393 2.57919 5.33416 2.76909C5.22439 2.95899 5.06658 3.11667 4.87658 3.22628C4.68658 3.33588 4.47108 3.39357 4.25173 3.39353C4.03239 3.39349 3.81691 3.33573 3.62695 3.22606L3.21028 3.94856C4.59945 4.75023 6.33528 3.74856 6.33528 2.14439H5.50195Z" fill="#FFC700"/>
</svg>
