<svg width="18" height="18" viewBox="0 0 18 18" fill="none" xmlns="http://www.w3.org/2000/svg">
<path d="M12.2 5.50001C13.2664 7.27801 13.2664 10.722 12.2 12.5M14.6 2.00001C17.7904 5.80801 17.8096 12.217 14.6 16M1 11.959V6.04001C1 5.46601 1.3584 5.00001 1.8 5.00001H4.6688C4.77467 4.99954 4.87936 4.97228 4.97657 4.91986C5.07377 4.86744 5.16148 4.79095 5.2344 4.69501L7.6344 1.30701C8.1384 0.651013 9 1.11601 9 2.04301V15.957C9 16.891 8.128 17.352 7.6272 16.683L5.2352 13.314C5.16207 13.2153 5.07348 13.1365 4.97493 13.0825C4.87639 13.0285 4.77 13.0004 4.6624 13H1.8C1.3584 13 1 12.534 1 11.959Z" stroke="#FFC700" stroke-width="2" stroke-linecap="round" stroke-linejoin="round"/>
</svg>
